name ./resultDataOpenSim/trcMotMarkerGrf/sub06/grf-01-02.mot
datacolumns 19
datarows 17
range 1.51200000 1.57600000
endheader

                time	     ground_force_vx	     ground_force_vy	     ground_force_vz	     ground_force_px	     ground_force_py	     ground_force_pz	   l_ground_force_vx	   l_ground_force_vy	   l_ground_force_vz	   l_ground_force_px	   l_ground_force_py	   l_ground_force_pz	     ground_torque_x	     ground_torque_y	     ground_torque_z	   l_ground_torque_x	   l_ground_torque_y	   l_ground_torque_z	
          1.51200000	        123.42558362	        676.86031446	        -32.74359722	          0.78575047	          0.00000000	          0.10695066	          0.00000000	          0.00000000	          0.00000000	          0.00000000	          0.00000000	          0.00000000	          0.00000000	          3.76130152	          0.00000000	          0.00000000	          0.00000000	          0.00000000	
          1.51600000	        129.01216728	        686.58769425	        -32.53334442	          0.78618162	          0.00000000	          0.10667213	          0.00000000	          0.00000000	          0.00000000	          0.00000000	          0.00000000	          0.00000000	          0.00000000	          3.65838082	          0.00000000	          0.00000000	          0.00000000	          0.00000000	
          1.52000000	        134.59823514	        695.52135540	        -32.43496577	          0.78661421	          0.00000000	          0.10638497	          0.00000000	          0.00000000	          0.00000000	          0.00000000	          0.00000000	          0.00000000	          0.00000000	          3.57013061	          0.00000000	          0.00000000	          0.00000000	          0.00000000	
          1.52400000	        140.27590553	        703.52388866	        -32.59849659	          0.78703591	          0.00000000	          0.10609414	          0.00000000	          0.00000000	          0.00000000	          0.00000000	          0.00000000	          0.00000000	          0.00000000	          3.51468557	          0.00000000	          0.00000000	          0.00000000	          0.00000000	
          1.52800000	        146.10210059	        710.46403067	        -33.09721455	          0.78743741	          0.00000000	          0.10580178	          0.00000000	          0.00000000	          0.00000000	          0.00000000	          0.00000000	          0.00000000	          0.00000000	          3.50286091	          0.00000000	          0.00000000	          0.00000000	          0.00000000	
          1.53200000	        152.07920175	        716.21334115	        -33.91216889	          0.78780997	          0.00000000	          0.10550755	          0.00000000	          0.00000000	          0.00000000	          0.00000000	          0.00000000	          0.00000000	          0.00000000	          3.53684787	          0.00000000	          0.00000000	          0.00000000	          0.00000000	
          1.53600000	        158.14941963	        720.64388081	        -34.93178816	          0.78815820	          0.00000000	          0.10521132	          0.00000000	          0.00000000	          0.00000000	          0.00000000	          0.00000000	          0.00000000	          0.00000000	          3.61073884	          0.00000000	          0.00000000	          0.00000000	          0.00000000	
          1.54000000	        164.20886573	        723.63804796	        -35.96911841	          0.78848972	          0.00000000	          0.10491040	          0.00000000	          0.00000000	          0.00000000	          0.00000000	          0.00000000	          0.00000000	          0.00000000	          3.71243986	          0.00000000	          0.00000000	          0.00000000	          0.00000000	
          1.54400000	        170.14712859	        725.10180925	        -36.79263298	          0.78881902	          0.00000000	          0.10459848	          0.00000000	          0.00000000	          0.00000000	          0.00000000	          0.00000000	          0.00000000	          0.00000000	          3.82598462	          0.00000000	          0.00000000	          0.00000000	          0.00000000	
          1.54800000	        175.91559430	        724.96650592	        -37.16477195	          0.78916932	          0.00000000	          0.10426721	          0.00000000	          0.00000000	          0.00000000	          0.00000000	          0.00000000	          0.00000000	          0.00000000	          3.93338181	          0.00000000	          0.00000000	          0.00000000	          0.00000000	
          1.55200000	        181.59562200	        723.16409229	        -36.89183890	          0.78954363	          0.00000000	          0.10390764	          0.00000000	          0.00000000	          0.00000000	          0.00000000	          0.00000000	          0.00000000	          0.00000000	          4.01593945	          0.00000000	          0.00000000	          0.00000000	          0.00000000	
          1.55600000	        187.38937862	        719.58464504	        -35.88157350	          0.78989386	          0.00000000	          0.10351397	          0.00000000	          0.00000000	          0.00000000	          0.00000000	          0.00000000	          0.00000000	          0.00000000	          4.05599780	          0.00000000	          0.00000000	          0.00000000	          0.00000000	
          1.56000000	        193.48891101	        714.05748499	        -34.17204607	          0.79014335	          0.00000000	          0.10309322	          0.00000000	          0.00000000	          0.00000000	          0.00000000	          0.00000000	          0.00000000	          0.00000000	          4.04010446	          0.00000000	          0.00000000	          0.00000000	          0.00000000	
          1.56400000	        199.92119997	        706.38354990	        -31.90313181	          0.79024839	          0.00000000	          0.10266493	          0.00000000	          0.00000000	          0.00000000	          0.00000000	          0.00000000	          0.00000000	          0.00000000	          3.96321979	          0.00000000	          0.00000000	          0.00000000	          0.00000000	
          1.56800000	        206.51210759	        696.38619034	        -29.26468614	          0.79022506	          0.00000000	          0.10224165	          0.00000000	          0.00000000	          0.00000000	          0.00000000	          0.00000000	          0.00000000	          0.00000000	          3.83161197	          0.00000000	          0.00000000	          0.00000000	          0.00000000	
          1.57200000	        212.95979256	        683.90850974	        -26.46328839	          0.79010806	          0.00000000	          0.10182125	          0.00000000	          0.00000000	          0.00000000	          0.00000000	          0.00000000	          0.00000000	          0.00000000	          3.66176781	          0.00000000	          0.00000000	          0.00000000	          0.00000000	
          1.57600000	        218.91024144	        668.74875180	        -23.69214291	          0.78990398	          0.00000000	          0.10140778	          0.00000000	          0.00000000	          0.00000000	          0.00000000	          0.00000000	          0.00000000	          0.00000000	          3.47463361	          0.00000000	          0.00000000	          0.00000000	          0.00000000	
